<svg xmlns="http://www.w3.org/2000/svg" class="svg clock" viewBox="0 0 16 24"><path fill="#2a8ab4" class="cls-1" d="M16 12a7.814 7.814 0 0 1-2.529 5.8l-.315 3.5a3 3 0 0 1-2.988 2.7h-4.35a3 3 0 0 1-2.984-2.7l-.316-3.5a7.927 7.927 0 0 1 .011-11.6l.315-3.5A3 3 0 0 1 5.829 0h4.364a3 3 0 0 1 2.983 2.7l.318 3.5A8.014 8.014 0 0 1 16 12zM4.826 21.1a1 1 0 0 0 1 .9h4.342a1 1 0 0 0 1-.9l.167-1.8a8.3 8.3 0 0 1-6.672 0zm6.357-18.2a.987.987 0 0 0-1-.9H5.83a1 1 0 0 0-.994.9l-.167 1.8a8.323 8.323 0 0 1 6.682 0zM8 6a6 6 0 1 0 6 6 6.012 6.012 0 0 0-6-6zm1.5 8.5a.984.984 0 0 1-.707-.3l-1.5-1.5A.945.945 0 0 1 7 12V9a1 1 0 0 1 2 0v2.6l1.207 1.2a1 1 0 0 1-.707 1.7z"/></svg>