<svg xmlns="http://www.w3.org/2000/svg" class="svg file-icon" viewBox="0 0 40 44"><path fill="#9b9892" class="cls-1" d="M31 9h5v2h-7V4h2v5zm6 35H9a3.006 3.006 0 0 1-3-3v-3h2v3a1 1 0 0 0 1 1h28a1 1 0 0 0 1-1V9.41L30.586 2H9a1 1 0 0 0-1 1v7H6V3a3.006 3.006 0 0 1 3-3h22.414L40 8.59V41a3.006 3.006 0 0 1-3 3zM6 13a1 1 0 0 1 1-1h8a1 1 0 0 1 1 1v8h4a1 1 0 0 1 .707 1.71l-9 9a1.007 1.007 0 0 1-1.414 0l-9-9a1 1 0 0 1-.217-1.09A.993.993 0 0 1 2 21h4v-8zM4.414 23L11 29.59 17.586 23H15a1 1 0 0 1-1-1v-8H8v8a1 1 0 0 1-1 1H4.414zM2 34h18v-2h2v3a1 1 0 0 1-1 1H1a1 1 0 0 1-1-1v-3h2v2z"/></svg>