<svg xmlns="http://www.w3.org/2000/svg" class="svg-icon phone" viewBox="0 0 13 14"><path fill="#fff" class="cls-1" d="M10.72 14c-.05 0-.09 0-.14-.007a11.335 11.335 0 0 1-5.16-1.971 12.185 12.185 0 0 1-3.58-3.849A13.326 13.326 0 0 1 .01 2.615a1.884 1.884 0 0 1 .38-1.349A1.693 1.693 0 0 1 1.55.615c.05 0 .1-.007.15-.007h1.72a1.762 1.762 0 0 1 1.69 1.576 7.715 7.715 0 0 0 .36 1.587 1.912 1.912 0 0 1-.38 1.931l-.41.441a8.892 8.892 0 0 0 2.61 2.8l.4-.439a1.624 1.624 0 0 1 1.8-.414 6.494 6.494 0 0 0 1.47.393 1.813 1.813 0 0 1 1.48 1.852v1.825a1.91 1.91 0 0 1-.5 1.3 1.636 1.636 0 0 1-1.2.541h-.02zM3.42 1.829H1.7a.558.558 0 0 0-.43.22.6.6 0 0 0-.13.446 12.109 12.109 0 0 0 1.65 5.018 11.136 11.136 0 0 0 3.24 3.481 10.263 10.263 0 0 0 4.66 1.783.48.48 0 0 0 .44-.179.623.623 0 0 0 .17-.432v-1.85a.6.6 0 0 0-.49-.62 7.257 7.257 0 0 1-1.71-.459.554.554 0 0 0-.61.136l-.72.774a.536.536 0 0 1-.68.1 10.062 10.062 0 0 1-3.62-3.893.641.641 0 0 1 .09-.734l.72-.776a.626.626 0 0 0 .13-.642 9.011 9.011 0 0 1-.43-1.85.584.584 0 0 0-.56-.523zm6.74 4.245a.576.576 0 0 1-.55-.494 2.365 2.365 0 0 0-1.8-1.93.609.609 0 0 1-.45-.716.573.573 0 0 1 .67-.483 3.53 3.53 0 0 1 2.69 2.9.609.609 0 0 1-.45.716.486.486 0 0 1-.11.007zm2.28-.007a.585.585 0 0 1-.57-.542 4.7 4.7 0 0 0-4.01-4.311.605.605 0 0 1-.51-.674.59.59 0 0 1 .63-.539A5.875 5.875 0 0 1 13 5.388a.6.6 0 0 1-.5.675.356.356 0 0 1-.06.004z"/></svg>