<svg xmlns="http://www.w3.org/2000/svg" class="svg-icon check" viewBox="0 0 16.031 16.031">
  <path fill="#2a8ab4" class="cls-1" d="M447.821,803a8.009,8.009,0,1,1,8.009-8.009A8.009,8.009,0,0,1,447.821,803Zm-0.005-14.634a6.644,6.644,0,1,0,6.644,6.644A6.644,6.644,0,0,0,447.816,788.366Zm0.223,9.276a0.923,0.923,0,0,1-1.306,0l-2.179-2.179a0.924,0.924,0,1,1,1.307-1.306l1.525,1.525,2.4-2.4a0.924,0.924,0,0,1,1.307,1.306Zm-1.307,0h0C446.988,797.9,447.059,797.969,446.732,797.642Z" transform="translate(-439.813 -786.969)"></path>
</svg>