<svg xmlns="http://www.w3.org/2000/svg" class="svg clock" viewBox="0 0 16 24">
  <path fill="#2a8ab4" class="cls-1" d="M628,10678a7.814,7.814,0,0,1-2.529,5.8l-0.315,3.5a3,3,0,0,1-2.988,2.7h-4.35a3,3,0,0,1-2.984-2.7l-0.316-3.5a7.927,7.927,0,0,1,.011-11.6l0.315-3.5a3,3,0,0,1,2.985-2.7h4.364a3,3,0,0,1,2.983,2.7l0.318,3.5A8.014,8.014,0,0,1,628,10678Zm-11.174,9.1a1,1,0,0,0,1,.9h4.342a1,1,0,0,0,1-.9l0.167-1.8a8.3,8.3,0,0,1-6.672,0Zm6.357-18.2a0.987,0.987,0,0,0-1-.9H617.83a1,1,0,0,0-.994.9l-0.167,1.8a8.323,8.323,0,0,1,6.682,0ZM620,10672a6,6,0,1,0,6,6A6.012,6.012,0,0,0,620,10672Zm1.5,8.5a0.984,0.984,0,0,1-.707-0.3l-1.5-1.5a0.945,0.945,0,0,1-.293-0.7v-3a1,1,0,0,1,2,0v2.6l1.207,1.2A1,1,0,0,1,621.5,10680.5Z" transform="translate(-612 -10666)"></path>
</svg>