<svg xmlns="http://www.w3.org/2000/svg" class="svg file-icon" viewBox="0 0 40 44">
  <path fill="#9b9892" class="cls-1" d="M577,4282h5v2h-7v-7h2v5Zm6,35H555a3.006,3.006,0,0,1-3-3v-3h2v3a1,1,0,0,0,1,1h28a1,1,0,0,0,1-1v-31.59l-7.414-7.41H555a1,1,0,0,0-1,1v7h-2v-7a3.006,3.006,0,0,1,3-3h22.414l8.586,8.59V4314A3.006,3.006,0,0,1,583,4317Zm-31-31a1,1,0,0,1,1-1h8a1,1,0,0,1,1,1v8h4a1,1,0,0,1,.707,1.71l-9,9a1.007,1.007,0,0,1-1.414,0l-9-9a1,1,0,0,1-.217-1.09A0.993,0.993,0,0,1,548,4294h4v-8Zm-1.586,10,6.586,6.59,6.586-6.59H561a1,1,0,0,1-1-1v-8h-6v8a1,1,0,0,1-1,1h-2.586ZM548,4307h18v-2h2v3a1,1,0,0,1-1,1H547a1,1,0,0,1-1-1v-3h2v2Z" transform="translate(-546 -4273)"></path>
</svg>