<svg xmlns="http://www.w3.org/2000/svg" class="svg-icon phone" viewBox="0 0 13 14">
  <path fill="#fff" class="cls-1" d="M1377.72,53c-0.05,0-.09,0-0.14-0.007a11.335,11.335,0,0,1-5.16-1.971,12.185,12.185,0,0,1-3.58-3.849,13.326,13.326,0,0,1-1.83-5.558,1.884,1.884,0,0,1,.38-1.349,1.693,1.693,0,0,1,1.16-.651c0.05,0,.1-0.007.15-0.007h1.72a1.762,1.762,0,0,1,1.69,1.576,7.715,7.715,0,0,0,.36,1.587,1.912,1.912,0,0,1-.38,1.931l-0.41.441a8.892,8.892,0,0,0,2.61,2.8l0.4-.439a1.624,1.624,0,0,1,1.8-.414,6.494,6.494,0,0,0,1.47.393,1.813,1.813,0,0,1,1.48,1.852v1.825a1.91,1.91,0,0,1-.5,1.3,1.636,1.636,0,0,1-1.2.541h-0.02Zm-7.3-12.171h-1.72a0.558,0.558,0,0,0-.43.22,0.6,0.6,0,0,0-.13.446,12.109,12.109,0,0,0,1.65,5.018,11.136,11.136,0,0,0,3.24,3.481,10.263,10.263,0,0,0,4.66,1.783,0.48,0.48,0,0,0,.44-0.179,0.623,0.623,0,0,0,.17-0.432v-1.85a0.6,0.6,0,0,0-.49-0.62,7.257,7.257,0,0,1-1.71-.459,0.554,0.554,0,0,0-.61.136l-0.72.774a0.536,0.536,0,0,1-.68.1,10.062,10.062,0,0,1-3.62-3.893,0.641,0.641,0,0,1,.09-0.734l0.72-.776a0.626,0.626,0,0,0,.13-0.642,9.011,9.011,0,0,1-.43-1.85A0.584,0.584,0,0,0,1370.42,40.829Zm6.74,4.245a0.576,0.576,0,0,1-.55-0.494,2.365,2.365,0,0,0-1.8-1.93,0.609,0.609,0,0,1-.45-0.716,0.573,0.573,0,0,1,.67-0.483,3.53,3.53,0,0,1,2.69,2.9,0.609,0.609,0,0,1-.45.716A0.486,0.486,0,0,1,1377.16,45.074Zm2.28-.007a0.585,0.585,0,0,1-.57-0.542,4.7,4.7,0,0,0-4.01-4.311,0.605,0.605,0,0,1-.51-0.674,0.59,0.59,0,0,1,.63-0.539,5.875,5.875,0,0,1,5.02,5.387,0.6,0.6,0,0,1-.5.675A0.356,0.356,0,0,1,1379.44,45.067Z" transform="translate(-1367 -39)"></path>
</svg>