<svg version="1.1" class="svg-icon item-advantages" xmlns="http://www.w3.org/2000/svg" x="0px" y="0px" viewBox="0 0 60 64" xml:space="preserve">
<g>
	<g>
		<g>
			<path class="adv-2" d="M36.7,31.7l-1.4-1.4l6.3-6.3H57c0.6,0,1-0.4,1-1V3c0-0.6-0.4-1-1-1H25c-0.6,0-1,0.4-1,1v9h-2V3
				c0-1.7,1.3-3,3-3h32c1.7,0,3,1.3,3,3v20c0,1.7-1.3,3-3,3H42.4L36.7,31.7z"></path>
		</g>
		<g>
			<rect x="36" y="12" class="st0" width="2" height="2"></rect>
		</g>
		<g>
			<rect x="40" y="12" class="st0" width="2" height="2"></rect>
		</g>
		<g>
			<rect x="44" y="12" class="st0" width="2" height="2"></rect>
		</g>
		<g>
			<g>
				<g>
					<path class="adv-3" d="M30,44"></path>
				</g>
				<g>
					<path class="adv-2" d="M2,64H0v-7c0-8,4.4-9.7,9.2-11.5c1.7-0.7,3.5-1.3,5.4-2.4l1,1.7c-1.9,1.1-3.9,1.9-5.6,2.5
						C5.1,49.2,2,50.4,2,57V64z"></path>
				</g>
				<g>
					<path class="adv-2" d="M46,64h-2v-7c0-6.6-3.1-7.8-7.9-9.6c-1.7-0.7-3.7-1.4-5.6-2.5l1-1.7c1.8,1,3.6,1.7,5.4,2.4
						C41.6,47.3,46,49,46,57V64z"></path>
				</g>
				<g>
					<path class="adv-2" d="M27.2,49.2L23,47.1l-4.2,2.1l-5.1-5.1l2.8-4.2L23,41l6.5-1.1l2.8,4.2L27.2,49.2z M23,44.9l3.8,1.9l2.9-2.9
						l-1.2-1.8L23,43l-5.5-0.9l-1.2,1.8l2.9,2.9L23,44.9z"></path>
				</g>
				<g>
					<rect x="27" y="37" class="adv-2" width="2" height="4"></rect>
				</g>
				<g>
					<rect x="17" y="37" class="adv-2" width="2" height="4"></rect>
				</g>
				<g>
					<rect x="22" y="54" class="adv-2" width="2" height="2"></rect>
				</g>
				<g>
					<rect x="22" y="50" class="adv-2" width="2" height="2"></rect>
				</g>
				<g>
					<g>
						<path class="adv-2" d="M23,39c-0.1,0-3.3,0-5.4-1.1l-0.1-0.1c-0.1-0.1-3.4-2.3-4.4-9.7l0-0.1v-4h2v3.9c0.9,5.9,3.2,8,3.5,8.2
							C20.3,37,23,37,23,37c0,0,2.7,0,4.5-0.9c0.3-0.2,2.7-2.3,3.5-8.2V24h2l0,4.1c-1.1,7.4-4.3,9.6-4.4,9.7l-0.1,0.1
							C26.3,39,23.1,39,23,39z"></path>
					</g>
					<g>
						<path class="adv-2" d="M33,24h-2c0-5.5-2.5-8-8-8c-5.5,0-8,2.5-8,8h-2c0-6.6,3.4-10,10-10C29.6,14,33,17.4,33,24z"></path>
					</g>
					<g>
						<polygon class="adv-2" points="28,27.1 18,23.1 14.4,24.9 13.6,23.1 18,20.9 28,24.9 31.6,23.1 32.4,24.9 						"></polygon>
					</g>
				</g>
			</g>
			<g>
				<rect x="8" y="58" class="adv-2" width="2" height="6"></rect>
			</g>
			<g>
				<rect x="36" y="58" class="adv-2" width="2" height="6"></rect>
			</g>
		</g>
	</g>
</g>
</svg>