<svg version="1.1" class="svg-icon item-advantages-2" xmlns="http://www.w3.org/2000/svg" x="0px" y="0px" viewBox="0 0 64 65" style="enable-background:new 0 0 64 65;" xml:space="preserve">
<style type="text/css">
	.st0{fill:none;stroke:#414141;stroke-width:2;stroke-miterlimit:10;}
</style>
<g>
</g>
<g>
	<g>
		<path class="st0" d="M34,60.6L34,60.6c0,1.4,1.1,2.5,2.5,2.5h4c1.4,0,2.5-1.1,2.5-2.5l0,0c0-1.4-1.1-2.5-2.5-2.5h-4
			C35.1,58.1,34,59.2,34,60.6z"></path>
		<path class="st0" d="M34,55.6L34,55.6c0,1.4,1.1,2.5,2.5,2.5h6c1.4,0,2.5-1.1,2.5-2.5l0,0c0-1.4-1.1-2.5-2.5-2.5h-6
			C35.1,53.1,34,54.2,34,55.6z"></path>
		<path class="st0" d="M34,50.6L34,50.6c0,1.4,1.1,2.5,2.5,2.5h7c1.4,0,2.5-1.1,2.5-2.5l0,0c0-1.4-1.1-2.5-2.5-2.5h-7
			C35.1,48.1,34,49.2,34,50.6z"></path>
		<path class="st0" d="M34,44.1v1.5c-0.3,0.7,1.1,2.3,2.5,2.5h6c1.4,0,2.5-1.1,2.5-2.5l0,0c0-1.4-1.1-2.5-2.5-2.5h-4.2"></path>
		<path class="st0" d="M24,54.1h2l4-4v-6h6.5c1.4,0,2.5-1.1,2.5-2.5v-2.5H27l-6,5.1H4"></path>
		<polyline class="st0" points="4.2,60.1 21,60.1 27,63.1 28.9,63 		"></polyline>
	</g>
	<line class="st0" x1="2" y1="60.1" x2="0" y2="60.1"></line>
	<line class="st0" x1="2" y1="44.2" x2="0" y2="44.2"></line>
</g>
<path class="st0" d="M30,50v11c0,1.1,0.9,2,2,2l0,0"></path>
<line class="st0" x1="29.9" y1="35" x2="29.9" y2="39"></line>
<circle class="st0" cx="32" cy="18" r="17"></circle>
<line class="st0" x1="33.9" y1="35" x2="33.9" y2="39"></line>
<g>
	<g>
		<path class="st0" d="M17.3,9.5c-0.8-1.3-2.1-2.3-3.8-2.5C10.5,6.7,8,9.1,8,12v2c0,1.6,0.8,3.1,2,4v4l-6.6,2.9
			C1.9,25.6,1,27,1,28.6V41"></path>
		<line class="st0" x1="5" y1="36" x2="5" y2="41"></line>
	</g>
	<g>
		<path class="st0" d="M44,30v-1.4c0-1.6-0.9-3-2.4-3.7L35,22v-4c1.2-0.9,2-2.3,2-4v-1.8c0-2.6-1.9-4.9-4.5-5.2
			c-3-0.3-5.5,2.1-5.5,5v2c0,1.6,0.8,3.1,2,4v4l-6.6,2.9C20.9,25.6,20,27,20,28.6V30"></path>
	</g>
	<g>
		<path class="st0" d="M46.7,9.5c0.9-1.6,2.8-2.6,4.8-2.4c2.6,0.2,4.5,2.6,4.5,5.2V14c0,1.6-0.8,3.1-2,4v4l6.6,2.9
			c1.4,0.6,2.4,2.1,2.4,3.7V57h-4v3"></path>
		<line class="st0" x1="59" y1="36" x2="59" y2="57"></line>
	</g>
	<line class="st0" x1="59" y1="62" x2="59" y2="64"></line>
</g>
<line class="st0" x1="21" y1="36" x2="21" y2="40"></line>
<line class="st0" x1="43" y1="36" x2="43" y2="40"></line>
<line class="st0" x1="56" y1="50" x2="49" y2="50"></line>
<line class="st0" x1="50" y1="54" x2="50" y2="64"></line>
<line class="st0" x1="56" y1="54" x2="54" y2="54"></line>
<line class="st0" x1="52" y1="32" x2="56" y2="32"></line>
<polyline class="st0" points="54,22 52,24 48,24 "></polyline>
<polyline class="st0" points="10,22 12,24 16,24 "></polyline>
<polyline class="st0" points="28,22 30,24 34,24 35.5,22.5 "></polyline>
</svg>