<svg xmlns="http://www.w3.org/2000/svg" class="svg-icon item-advantages-3" viewBox="0 0 61 64">
  <g data-name="Уделяем внимание каждой детали">
    <path data-name="Уделяем внимание каждой детали" class="adv-1" d="M1339,4862h-53.91v-2H1339v2Zm-5.64,4h-42.64l-5.26-4.22a1,1,0,0,1-.16-1.4,1.012,1.012,0,0,1,1.41-.16l4.71,3.78h41.24l4.72-3.78a1,1,0,1,1,1.25,1.56Zm-29.3,30.88a0.853,0.853,0,0,1-.63-0.26,0.881,0.881,0,0,1,0-1.24l13.92-13.94,5.89-8.85,2.96-7.9a0.874,0.874,0,0,1,1.13-.52,0.885,0.885,0,0,1,.52,1.14l-3.09,8.18-6.1,9.13-13.98,14A0.847,0.847,0,0,1,1304.06,4896.88Zm-9.99-9.88a0.86,0.86,0,0,1-.16-0.01,0.989,0.989,0,0,1-.82-1.15l1.09-6.29,2.89-5.79v-4.64l-0.97-3.88a0.994,0.994,0,1,1,1.93-.48l1.03,4.24v5.24l-3.03,6.07-0.97,5.85A1.015,1.015,0,0,1,1294.07,4887Zm14.86-8.94-4.78-2.39-1.08-6.51-0.98-3.92a0.993,0.993,0,0,1,.72-1.21,1.01,1.01,0,0,1,1.22.73l0.99,4,0.94,5.57,3.2,1.61,3.43-.86,4.67-3.74,3.9-6.84a1,1,0,0,1,1.36-.37,1.014,1.014,0,0,1,.38,1.37l-4.09,7.16-5.31,4.26ZM1279.09,4900a1,1,0,0,1-.7-1.71l6.99-7a1,1,0,0,1,1.41,0,1.008,1.008,0,0,1,0,1.42l-6.99,7A1.024,1.024,0,0,1,1279.09,4900Zm15.98,8a1.024,1.024,0,0,1-.71-0.29,1.008,1.008,0,0,1,0-1.42l3-3a1,1,0,0,1,1.41,0,1.008,1.008,0,0,1,0,1.42l-3,3A1,1,0,0,1,1295.07,4908Zm3.99-2a1,1,0,0,1-.7-0.29l-13.98-14a1.008,1.008,0,0,1,0-1.42l6.99-7a1,1,0,0,1,1.41,0l13.98,14a1.008,1.008,0,0,1,0,1.42l-6.99,7A1.024,1.024,0,0,1,1299.06,4906Zm-12.56-15,12.56,12.59,5.58-5.59-12.57-12.59Zm13.56,8a1,1,0,0,1-.7-0.29l-2-2a1.008,1.008,0,0,1,0-1.42,1,1,0,0,1,1.41,0l2,2a1.008,1.008,0,0,1,0,1.42A1.024,1.024,0,0,1,1300.06,4899Zm8.99-21a1.024,1.024,0,0,1-.71-0.29,1.008,1.008,0,0,1,0-1.42l4.86-4.86,2.92-6.82a0.995,0.995,0,1,1,1.83.78l-3.07,7.18-5.13,5.14A1,1,0,0,1,1309.05,4878Zm-15.69-22.29-2.99-3,1.41-1.42,3,3Zm8.8-5.26-1.99-4,1.78-.9,2,4Zm28.56,5.26-1.41-1.42,3-3,1.41,1.42Zm-8.8-5.26-1.78-.9,1.99-4,1.79,0.9Zm-8.88-2.45h-1.99v-4h1.99v4Z" transform="translate(-1278 -4844)"></path>
  </g>
</svg>