<svg version="1.1" class="svg-icon item-advantages-2" xmlns="http://www.w3.org/2000/svg" x="0px" y="0px" viewBox="0 0 60 60" style="enable-background:new 0 0 60 60;" xml:space="preserve">
<style type="text/css">
	.st0{fill:none;stroke:#414141;stroke-width:2;stroke-miterlimit:10;}
	.st1{fill:none;stroke:#414141;stroke-width:2;stroke-linecap:round;stroke-miterlimit:10;}
</style>
<g>
</g>
<g>
	<path class="st0" d="M24,59v-9h2c1.7,0,3-1.3,3-3l0,0c0-1.7-1.3-3-3-3h-2V28h-2c-1.7,0-3-1.3-3-3l0,0c0-1.7,1.3-3,3-3h2v-9"></path>
	<path class="st1" d="M5,36h5v2c0,1.7,1.3,3,3,3l0,0c1.7,0,3-1.3,3-3v-2h16v-2c0-1.7,1.3-3,3-3l0,0c1.7,0,3,1.3,3,3v2h9"></path>
	<polygon class="st0" points="59,1 13,1 1,13 1,59 47,59 59,46 	"></polygon>
	<polyline class="st1" points="47,20 47,13 6,13 	"></polyline>
	<line class="st1" x1="47" y1="44" x2="47" y2="23.9"></line>
	<line class="st0" x1="47" y1="13" x2="59" y2="1"></line>
	<line class="st0" x1="24" y1="13" x2="35.9" y2="1.1"></line>
	<line class="st0" x1="35.1" y1="13" x2="47" y2="1.1"></line>
	<line class="st0" x1="47" y1="36" x2="59" y2="23"></line>
	<line class="st1" x1="47" y1="59" x2="47" y2="47.9"></line>
</g>
</svg>