<svg xmlns="http://www.w3.org/2000/svg" class="svg-icon item-advantages-3" viewBox="0 0 64 56">
  <g data-name="высоким  требованиям">
    <path data-name="высоким  требованиям" class="adv-1" d="M708,5166a1,1,0,0,1-.782-0.38l-30.932-39a0.991,0.991,0,0,1-.074-1.13l8.98-15a0.982,0.982,0,0,1,.856-0.49h43.9a0.982,0.982,0,0,1,.855.49l8.98,15a0.989,0.989,0,0,1-.074,1.13l-30.932,39A1,1,0,0,1,708,5166Zm-29.721-40.08L708,5163.39l29.721-37.47L729.383,5112H686.61Zm60.653,1.08H677.064v-2h61.865v2Zm-19.152-.41-1.609-1.18,10.976-15,1.609,1.18Zm-1.609,0-10.976-15,1.609-1.18,10.976,15Zm-20.342,0-1.61-1.18,10.976-15,1.609,1.18Zm-1.61,0-10.976-15,1.61-1.18,10.976,15Zm10.82,38.68-10.976-39,1.922-.54,10.975,39Zm1.921,0-1.921-.54,10.976-39,1.921,0.54Z" transform="translate(-676 -5110)"></path>
  </g>
</svg>