<svg xmlns="http://www.w3.org/2000/svg" class="svg-icon item-advantages-3" viewBox="0 0 64 64">
  <g data-name="правильной геометрии">
    <path data-name="правильной геометрии" class="adv-1" d="M1005,5151a1.024,1.024,0,0,1-.71-0.29l-13-13a1.006,1.006,0,0,1,0-1.42l5-5a1,1,0,0,1,1.414,0l7.293,7.3,13.29-13.3a1.008,1.008,0,0,1,1.42,0l5,5a1.008,1.008,0,0,1,0,1.42l-19,19A1.024,1.024,0,0,1,1005,5151Zm-11.586-14L1005,5148.59l17.59-17.59-3.59-3.59-13.29,13.3a1.008,1.008,0,0,1-1.42,0l-7.29-7.3ZM1009,5164h-2v-2h2v2Zm0-50h-2v-2h2v2Zm-25,25h-2v-2h2v2Zm50,0h-2v-2h2v2Zm-26,31a32,32,0,1,1,32-32A32.039,32.039,0,0,1,1008,5170Zm0-62a30,30,0,1,0,30,30A30.035,30.035,0,0,0,1008,5108Z" transform="translate(-976 -5106)"></path>
  </g>
</svg>