<svg version="1.1" class="svg-icon item-advantages-2"
	xmlns="http://www.w3.org/2000/svg" x="0px" y="0px" viewBox="0 0 64 64" style="enable-background:new 0 0 64 64;" xml:space="preserve">
	<g>
	</g>
	<polyline class="st0" points="26,11 30,1 34,1 38,11 "></polyline>
	<rect x="12" y="11" class="st0" width="40" height="22"></rect>
	<g>
		<polyline class="st0" points="38,32.9 38,51 34,51 	"></polyline>
		<polyline class="st0" points="30,51 26,51 26,33 	"></polyline>
		<polygon class="st0" points="26,41 21,41 17,45 17,57 21,57 26,51 	"></polygon>
		<rect x="30" y="41" class="st0" width="4" height="16"></rect>
		<polygon class="st0" points="38,41 43,41 47,45 47,57 43,57 38,51 	"></polygon>
	</g>
	<path class="st0" d="M24,28V18c0.8-0.8,1.2-1.2,2-2h2c0.8,0.8,1.2,1.2,2,2v10"></path>
	<line class="st0" x1="24" y1="22" x2="30" y2="22"></line>
	<path class="st0" d="M34,27V16h4c0.8,0.8,1.2,1.2,2,2v7c-0.8,0.8-1.2,1.2-2,2H34z"></path>
	<line class="st0" x1="44" y1="22" x2="48" y2="22"></line>
	<line class="st0" x1="20" y1="22" x2="16" y2="22"></line>
	<line class="st0" x1="28" y1="58" x2="28" y2="60"></line>
	<line class="st0" x1="28" y1="62" x2="28" y2="64"></line>
	<line class="st0" x1="36" y1="58" x2="36" y2="60"></line>
	<line class="st0" x1="36" y1="62" x2="36" y2="64"></line>
	<line class="st0" x1="32" y1="60" x2="32" y2="62"></line>
	<line class="st0" x1="38" y1="56" x2="38" y2="58"></line>
	<line class="st0" x1="38" y1="60" x2="38" y2="62"></line>
	<line class="st0" x1="26" y1="56" x2="26" y2="58"></line>
	<line class="st0" x1="26" y1="60" x2="26" y2="62"></line>
	<g>
		<path class="st0" d="M63,64L63,64c0-2.2-1.8-4-4-4l0,0l0,0c0-2.2-1.8-4-4-4l0,0c-2.2,0-4,1.8-4,4l0,0"></path>
	</g>
	<g>
		<path class="st0" d="M13,60L13,60L13,60c0-2.2-1.8-4-4-4l0,0c-2.2,0-4,1.8-4,4l0,0c-2.2,0-4,1.8-4,4"></path>
	</g>
	<g>
		<path class="st0" d="M14,48L14,48c-2.2,0-4,1.8-4,4l0,0c-2.2,0-4,1.8-4,4v1.3"></path>
	</g>
	<g>
		<path class="st0" d="M50,48L50,48c2.2,0,4,1.8,4,4l0,0c2.2,0,4,1.8,4,4v1.4"></path>
	</g>
	<g>
		<path class="st0" d="M53,64L53,64L53,64c0-2.2-1.8-4-4-4l0,0c-2.2,0-4,1.8-4,4l0,0"></path>
	</g>
	<g>
		<path class="st0" d="M18,64L18,64L18,64c0-2.2-1.8-4-4-4l0,0c-2.2,0-4,1.8-4,4l0,0"></path>
	</g>
	<line class="st0" x1="12" y1="36" x2="12" y2="40"></line>
	<line class="st0" x1="12" y1="42" x2="12" y2="44"></line>
	<line class="st0" x1="52" y1="36" x2="52" y2="40"></line>
	<line class="st0" x1="52" y1="42" x2="52" y2="44"></line>
</svg>